PathFileType	4	(X/Y/Z)	RBDS016\RBDS016runT25.trc
DataRate	CameraRate	NumFrames	NumMarkers	Units	OrigDataRate	OrigDataStartFrame	OrigNumFrames
150.000000	150.000000	4	33	mm	150.000000	1687	4500
Frame#	Time	L.ASIS			L.Heel.Bottom			L.Heel.Lateral			L.Heel.Top			L.Iliac.Crest			L.MT1			L.MT5			L.PSIS			L.Shank.Bottom.Lateral			L.Shank.Bottom.Medial			L.Shank.Top.Lateral			L.Shank.Top.Medial			L.Thigh.Bottom.Lateral			L.Thigh.Bottom.Medial			L.Thigh.Top.Lateral			L.Thigh.Top.Medial			R.ASIS			R.ASY			R.Heel.Bottom			R.Heel.Lateral			R.Heel.Top			R.Iliac.Crest			R.MT1			R.MT5			R.PSIS			R.Shank.Bottom.Lateral			R.Shank.Bottom.Medial			R.Shank.Top.Lateral			R.Shank.Top.Medial			R.Thigh.Bottom.Lateral			R.Thigh.Bottom.Medial			R.Thigh.Top.Lateral			R.Thigh.Top.Medial			
		X1	Y1	Z1	X2	Y2	Z2	X3	Y3	Z3	X4	Y4	Z4	X5	Y5	Z5	X6	Y6	Z6	X7	Y7	Z7	X8	Y8	Z8	X9	Y9	Z9	X10	Y10	Z10	X11	Y11	Z11	X12	Y12	Z12	X13	Y13	Z13	X14	Y14	Z14	X15	Y15	Z15	X16	Y16	Z16	X17	Y17	Z17	X18	Y18	Z18	X19	Y19	Z19	X20	Y20	Z20	X21	Y21	Z21	X22	Y22	Z22	X23	Y23	Z23	X24	Y24	Z24	X25	Y25	Z25	X26	Y26	Z26	X27	Y27	Z27	X28	Y28	Z28	X29	Y29	Z29	X30	Y30	Z30	X31	Y31	Z31	X32	Y32	Z32	X33	Y33	Z33	

1688	11.24666666666667	2510.465866801643	956.0621859559377	980.2990156355676	2514.855708408961	35.15568415052787	1037.814189084509	2527.157938007485	53.73055241012263	989.9616586118345	2512.539145551883	82.45040109828285	1030.713424062279	2435.745749684106	1035.603476154429	921.7124073411812	2723.386788772732	107.0669753394397	1026.753871981963	2674.560417538072	76.17858115334882	934.2049188608731	2329.735817202938	1001.221648124327	1039.065531418429	2534.8731139561	189.338922728289	963.9791736186885	2517.821028475931	193.7612160168894	1017.677214608708	2517.517606741542	267.1550176068828	953.9283790308723	2502.674799995205	272.3682802867344	1005.43840281329	2516.437120405967	589.9660835267925	916.6760463595876	2455.117044169765	574.7260084845507	952.8396726884641	2480.703444099404	692.5068325957478	899.5334492201202	2422.036330299101	677.7014260955928	933.8610136736957	2510.820380696517	941.7203165584142	1199.84777864917	2107.707517206448	102.3354177298732	1156.608083571195	1949.738938188423	205.4636018335418	1110.865735889473	1973.751130312774	198.6615634194125	1159.269846842908	1992.570567214899	231.8003652802975	1122.153311376443	2465.989694118836	1021.340205096698	1235.335468985479	2110.215365046881	62.29495489164665	1111.802341520313	2054.124579849819	71.56211622558344	1206.36808086578	2330.369668434134	1001.96596030672	1138.946458901717	2066.221052423527	263.5272833640356	1195.404410237031	2044.286699651617	287.2628684783498	1155.514155416853	2106.290257163856	336.4750156816144	1213.990191777658	2079.904879764377	358.0013519050602	1172.883376868066	2291.094550409517	617.3145997813355	1244.050324859152	2244.961204001725	636.5897479940635	1191.798558496447	2315.819774521267	724.1124650208352	1258.960834476731	2272.615181018521	741.6212638776858	1208.784817198011	
1689	11.25333333333333	2511.227334713116	956.5824969192837	979.8066521272823	2535.22385442067	32.30679794205145	1040.312596244963	2546.552995267243	50.85603349936157	992.2618256238703	2530.244143874653	79.33877774971789	1032.615496887843	2437.166453595823	1036.928049424314	920.9828563566246	2739.653044246752	115.6746902575843	1028.345958476843	2692.691282648331	80.80749797122758	936.0989763940073	2330.716784469118	1003.548715896832	1038.447540854198	2547.168368227448	187.8229759405768	965.3571863378177	2530.049742338522	191.8261808643376	1019.085891860317	2526.207406592534	264.7312787314607	954.8891384525715	2511.320036756536	269.6124937634341	1006.428863993842	2512.292823411657	588.781247787699	915.641371961346	2451.428743644718	574.5678563382063	952.8934561003538	2477.621886283452	691.73568934694	898.6020104416017	2419.541057860145	677.9601658585503	934.1351108356782	2511.963687397266	943.2253148860194	1198.731503024556	2096.915379580434	106.1892571992716	1157.9955364933	1944.193514381903	216.4304248923854	1110.827614027853	1967.325334622224	208.4372445522953	1159.517048911211	1988.081816832338	240.7490317442747	1122.71253202192	2467.643767958923	1023.794985551395	1233.737341936597	2098.137841630565	66.21208615060964	1113.069349019287	2041.387350034835	77.17945131469395	1206.794799017009	2331.662712121109	1004.610233924644	1138.381286012893	2060.554698050222	269.2385779593873	1196.257099034417	2039.40619825865	293.1949131312796	1156.100210525706	2101.95201356957	341.4339516588782	1214.759262859161	2076.281970479315	363.2758085961573	1173.328369326647	2290.725753935737	619.1370132709536	1244.205882891332	2245.115380804999	638.1819705734536	1191.391263624256	2315.612782324073	725.9523384411552	1258.592710803013	2272.942003001771	743.2665039704974	1207.825751643592	
1690	11.26	2511.924536048896	956.5106372686583	979.264889734442	2553.318881780275	30.3530178919735	1042.958447234159	2563.738619398791	48.79631548073085	994.6875476443486	2545.950688809961	77.04839453471777	1034.668198646472	2438.400282218722	1037.494935777951	920.184947116125	2753.656466825871	123.8702516096396	1029.882594945045	2708.45630956329	85.35911931899702	938.0156995566688	2331.516169810034	1005.241066528407	1037.79732508724	2558.069903792738	186.7517393241389	966.8383913678842	2540.896326510965	190.4418231014865	1020.557876226022	2533.991102812509	262.724978774848	955.9150763545452	2519.068690947199	267.3712236698723	1007.481563572015	2508.643252864442	587.3024919502125	914.5168135685404	2448.42412121687	573.9837441081831	953.1022053963368	2474.622043723684	690.5105680439846	897.5398676633454	2417.336360722481	677.6236120958181	934.5183276008662	2512.987913206206	944.4633225275372	1197.693284698984	2086.353273636062	110.4052339175978	1159.415649223334	1939.028218225548	227.1622738438131	1110.628150919847	1961.245952943459	218.1880023514075	1159.623926457601	1983.857721335573	249.5126158376546	1123.044954291188	2468.796103437348	1025.773236871152	1232.399976997645	2086.40367346196	70.42832959536995	1114.501015583813	2029.084213337214	83.33627037279446	1207.364110998801	2332.757587177441	1006.67858970714	1137.801431668694	2055.329377099176	274.8359429742773	1196.949166733709	2034.989922448758	299.1037865105357	1156.596689997574	2098.267049999767	346.091327070341	1215.405089744248	2073.346708000838	368.3529674648979	1173.71598352499	2291.328126505613	620.0190820794431	1244.278587378325	2246.02034965107	638.7791333126746	1191.079105599014	2316.131388933335	726.8944748741093	1258.204260777643	2273.763084121867	743.9629375135286	1207.036338647102	
1691	11.26666666666667	2512.546574285233	955.885380829683	978.6686635804415	2568.785759888221	29.03231642604055	1045.664252676326	2578.393347448872	47.31815456402621	997.1645190411831	2559.372436203601	75.366599273706	1036.811759738277	2439.400975629235	1037.3197993506	919.3398423560116	2765.305333984644	131.1873719855307	1031.372200336309	2721.675879009057	89.44165221537639	939.9422847457888	2332.135598757014	1006.231556572975	1037.128219952096	2567.399568626029	185.9122910039061	968.3856939719919	2550.176100178869	189.3858327677808	1022.062900068991	2540.722425481094	260.9907429445794	956.9900692272271	2525.767570225109	265.4864476365552	1008.577949209451	2505.644779579372	585.6073213082853	913.4118703242925	2446.175207247127	572.9991568618211	953.4291514750298	2471.852874662183	688.911190438188	896.4450030937745	2415.49736112352	676.7300101939186	934.9848887935005	2513.881103899111	945.4169703110008	1196.730897062129	2076.112177177224	114.9755764537401	1160.872917835642	1934.220303346101	237.6236825696962	1110.295500781627	1955.535058942826	227.8896583476491	1159.608844256578	1979.887245261329	258.0788591035961	1123.155908932558	2469.461203334264	1027.24835301102	1231.317506681597	2075.073013893144	74.90700530097641	1116.115265945675	2017.332700793644	90.02546753782619	1208.119848175287	2333.641853415043	1008.099389225195	1137.218120623177	2050.564942813917	280.3468394291079	1197.490693596119	2031.060963197657	305.0118163222107	1157.004516664402	2095.247669941352	350.4690167471868	1215.923577529861	2071.115261746129	373.2477181102797	1174.039954714874	2292.931948808279	619.8975474633849	1244.271815612668	2247.688862743277	638.3345096474467	1190.890028747891	2317.411408248688	726.8720943202291	1257.824633744494	2275.088273208088	743.6607818772703	1206.475750038323	
